<svg xmlns="http://www.w3.org/2000/svg" xmlns:svg="http://www.w3.org/2000/svg" id="svg1157" width="16" height="16" version="1.1"><metadata id="metadata1163"/><title id="title996">Find Edit</title><desc id="desc998">Find Edit</desc><g id="icon" transform="translate(8,8)"><defs id="defs1053"><linearGradient id="backing" x1="0%" x2="100%" y1="0%" y2="100%"><stop id="stop1000" offset="0%" stop-color="#767a80"/><stop id="stop1002" offset="100%" stop-color="#000"/></linearGradient><linearGradient id="block" x1="0%" x2="100%" y1="0%" y2="0%"><stop id="stop1005" offset="0%" stop-color="#86929f"/><stop id="stop1007" offset="33%" stop-color="#bac3cc"/><stop id="stop1009" offset="100%" stop-color="#8b98a6"/></linearGradient><linearGradient id="shade" x1="0%" x2="100%" y1="0%" y2="0%"><stop id="stop1012" offset="0%" stop-color="#000" stop-opacity="0"/><stop id="stop1014" offset="20%" stop-color="#000" stop-opacity=".7"/><stop id="stop1016" offset="100%" stop-color="#000"/></linearGradient><linearGradient id="shade2" x1="0%" x2="100%" y1="0%" y2="0%"><stop id="stop1019" offset="0%" stop-color="#000"/><stop id="stop1021" offset="80%" stop-color="#000" stop-opacity=".7"/><stop id="stop1023" offset="100%" stop-color="#000" stop-opacity="0"/></linearGradient><linearGradient id="swivel-shade" x1="0%" x2="0%" y1="0%" y2="100%"><stop id="stop1026" offset="0%" stop-color="#000" stop-opacity=".4"/><stop id="stop1028" offset="100%" stop-color="#000" stop-opacity="0"/></linearGradient><linearGradient id="swivel" x1="0%" x2="100%" y1="0%" y2="0%"><stop id="stop1031" offset="0%" stop-color="#7b91aa"/><stop id="stop1033" offset="33%" stop-color="#94a7ba"/><stop id="stop1035" offset="100%" stop-color="#7d8d9f"/></linearGradient><linearGradient id="top-left" x1="0%" x2="100%" y1="0%" y2="100%"><stop id="stop1038" offset="0%" stop-color="#7d8a96"/><stop id="stop1040" offset="100%" stop-color="#484f56"/></linearGradient><linearGradient id="top-right" x1="0%" x2="100%" y1="0%" y2="100%"><stop id="stop1043" offset="0%" stop-color="#93a0ae"/><stop id="stop1045" offset="100%" stop-color="#010101"/></linearGradient><linearGradient id="top-center" x1="0%" x2="100%" y1="0%" y2="100%"><stop id="stop1048" offset="0%" stop-color="#aeb8c3"/><stop id="stop1050" offset="100%" stop-color="#5e6770"/></linearGradient></defs><path id="path1055" fill="url(#backing)" d="M0,0 h6 v5.5 a0.5,0.5 0 0,1 -.5,0.5 h-5 a0.5,0.5 0 0,1 -.5,-.5 v-5.5 m-1,0 h-6 v5.5 a0.5,0.5 0 0,0 0.5,0.5 h5 a0.5,0.5 0 0,0 0.5,-.5 l0-5.5 z"/><rect id="rect1057" width="1" height="1.5" x="-1" y="-1" fill="url(#backing)"/><rect id="rect1059" width="4" height="4" x="1" y="1" fill="url(#block)"/><rect id="rect1061" width="4" height="4" x="-6" y="1" fill="url(#block)"/><rect id="rect1063" width="2" height="3" x="-7" y="2" fill="url(#shade2)" opacity=".3"/><rect id="rect1065" width="2" height="3" x="0" y="2" fill="url(#shade2)" opacity=".3"/><rect id="rect1067" width="3" height="3" x="-4" y="2" fill="url(#shade)" opacity=".3"/><rect id="rect1069" width="3" height="3" x="3" y="2" fill="url(#shade)" opacity=".3"/><path id="path1071" fill="url(#top-right)" d="M0,0 v-6 h3 v1.5 a0.5,0.5 0 0,0 0.5,0.5 l0.5,0 a2,2 0 0,1 2,2 v2"/><path id="path1073" fill="url(#top-center)" d="M1,0 v-5 h1 v1.5 a0.5,0.5 0 0,0 0.5,0.5 l0.5,0 a2,2 0 0,1 2,2 v1"/><path id="path1075" fill="url(#top-left)" d="M-1,0 v-6 h-3 v1.5 a0.5,0.5 0 0,1 -.5,0.5 l-0.5,0 a2,2 0 0,0 -2,2 v2"/><path id="path1077" fill="url(#top-center)" d="M-2,0 v-5 h-1 v1.5 a0.5,0.5 0 0,1 -.5,0.5 l-0.5,0 a2,2 0 0,0 -2,2 v1"/><rect id="rect1079" width="5" height="2" x="-3" y="-3" fill="url(#swivel)"/><rect id="rect1081" width="5" height="1.5" x="-3" y="-3" fill="url(#swivel-shade)"/><g id="pencil" transform="translate(2,2)"><defs id="defs1141"><linearGradient id="top_center" x1="0%" x2="100%" y1="0%" y2="0%"><stop id="stop1083" offset="0%" stop-color="#f7e1c9"/><stop id="stop1085" offset="100%" stop-color="#f4cfa5"/></linearGradient><linearGradient id="pencil-back" x1="100%" x2="0%" y1="0%" y2="100%"><stop id="stop1088" offset="0%" stop-color="#ca9350" stop-opacity="1"/><stop id="stop1090" offset="20%" stop-color="#ca9350" stop-opacity=".5"/><stop id="stop1092" offset="30%" stop-color="#ca9350" stop-opacity="0"/><stop id="stop1094" offset="55%" stop-color="#936d1e" stop-opacity="0"/><stop id="stop1096" offset="65%" stop-color="#936d1e" stop-opacity=".3"/><stop id="stop1098" offset="80%" stop-color="#936d1e" stop-opacity=".9"/><stop id="stop1100" offset="92%" stop-color="#936d1e" stop-opacity="1"/><stop id="stop1102" offset="94%" stop-color="#594212" stop-opacity="1"/></linearGradient><linearGradient id="pencil-cross" x1="37%" x2="63%" y1="37%" y2="63%"><stop id="stop1105" offset="0%" stop-color="#e4ba2f"/><stop id="stop1107" offset="100%" stop-color="#d98f3b"/></linearGradient><linearGradient id="pencil-nib" x1="100%" x2="0%" y1="0%" y2="100%"><stop id="stop1110" offset="0%" stop-color="#fae7d1" stop-opacity="1"/><stop id="stop1112" offset="75%" stop-color="#fae7d1" stop-opacity=".9"/><stop id="stop1114" offset="100%" stop-color="#fae7d1" stop-opacity="0"/></linearGradient><linearGradient id="pencil-outer" x1="37%" x2="63%" y1="37%" y2="63%"><stop id="stop1117" offset="0%" stop-color="#f8edc3"/><stop id="stop1119" offset="10%" stop-color="#fcf4b3"/><stop id="stop1121" offset="45%" stop-color="#f4d644"/><stop id="stop1123" offset="55%" stop-color="#f4d644"/><stop id="stop1125" offset="90%" stop-color="#fcf4b3"/><stop id="stop1127" offset="100%" stop-color="#faee8e"/></linearGradient><linearGradient id="pencil-nib-shadow" x1="0%" x2="100%" y1="0%" y2="100%"><stop id="stop1130" offset="0%" stop-color="#e07500" stop-opacity="0"/><stop id="stop1132" offset="40%" stop-color="#e07500" stop-opacity=".2"/><stop id="stop1134" offset="50%" stop-color="#e07500" stop-opacity=".45"/><stop id="stop1136" offset="60%" stop-color="#e07500" stop-opacity=".4"/><stop id="stop1138" offset="100%" stop-color="#e07500" stop-opacity="0"/></linearGradient></defs><path id="path1143" fill="url(#pencil-cross)" d="M2,-5 l-8,8 v3 h3 l8,-8 a2,1.25 45 0,0 -3,-3"/><path id="path1145" fill="url(#pencil-back)" d="M2,-5 l-8,8 v3 h3 l8,-8 a2,1.25 45 0,0 -3,-3"/><ellipse id="ellipse1147" cx="0" cy="0" fill="url(#top_center)" rx="1.25" ry=".75" transform="translate(3.5,-3.5) rotate(45)"/><path id="path1149" fill="url(#pencil-nib)" d="M-5,5 h2 l1,-1 a1.41,0.75 45 0,1 -2,-2 l-1,1 v2"/><path id="path1151" fill="url(#pencil-nib-shadow)" d="M-5,5 h2 l1,-1 a1.41,0.75 45 0,1 -2,-2 l-1,1 v2"/><path id="path1153" fill="url(#pencil-outer)" d="M2,-4 l-5.5,5.5 a1.41,0.75 45 0,0 2,2 l5.5,-5.5 a1.41,0.75 45 0,1 -2,-2"/></g></g></svg>